<svg width="20" height="20" viewBox="0 0 20 20" fill="none" xmlns="http://www.w3.org/2000/svg">
<path d="M6.16921 6.80764V5.53072C6.16921 4.51474 6.57281 3.54037 7.29122 2.82196C8.00962 2.10355 8.984 1.69995 9.99998 1.69995C11.016 1.69995 11.9903 2.10355 12.7087 2.82196C13.4272 3.54037 13.8307 4.51474 13.8307 5.53072V6.80764M3.35998 6.80764H16.64C16.64 6.80764 17.6615 6.80764 17.6615 7.95687C17.6615 9.10611 17.6615 16.1152 17.6615 16.1152C17.6615 17.3219 16.6336 18.3 15.4269 18.3H4.57306C3.36636 18.3 2.33844 17.272 2.33844 16.0653C2.33844 16.0653 2.33844 9.10611 2.33844 7.95687C2.33844 6.80764 3.35998 6.80764 3.35998 6.80764Z" stroke="#6C6C6C" stroke-width="1.5" stroke-linecap="round" stroke-linejoin="round"/>
</svg>
