<svg width="20" height="20" viewBox="0 0 20 20" fill="none" xmlns="http://www.w3.org/2000/svg">
<g clip-path="url(#clip0_1_106)">
<path d="M1.66626 10.17C1.66626 8.26246 1.66626 7.30913 2.09959 6.51913C2.53126 5.72829 3.32209 5.23829 4.90293 4.25663L6.56959 3.22246C8.24043 2.18496 9.07626 1.66663 9.99959 1.66663C10.9229 1.66663 11.7579 2.18496 13.4296 3.22246L15.0963 4.25663C16.6771 5.23829 17.4679 5.72829 17.9004 6.51913C18.3329 7.30996 18.3329 8.26246 18.3329 10.1691V11.4375C18.3329 14.6875 18.3329 16.3133 17.3563 17.3233C16.3796 18.3333 14.8088 18.3333 11.6663 18.3333H8.33293C5.19043 18.3333 3.61876 18.3333 2.64293 17.3233C1.66709 16.3133 1.66626 14.6883 1.66626 11.4375V10.17Z" stroke="#040404" stroke-width="1.5"/>
</g>
<defs>
<clipPath id="clip0_1_106">
<rect width="20" height="20" fill="white"/>
</clipPath>
</defs>
</svg>
