<svg width="80" height="91" viewBox="0 0 80 91" fill="none" xmlns="http://www.w3.org/2000/svg">
<path d="M73.2048 86.7136L0 87.537L12.9728 15.85L64.556 18.797L73.2048 86.7136Z" fill="#3F3F3F"/>
<path d="M80.0001 90.418H11.6344L12.0185 87.402L73.2049 86.7136L64.8565 21.1559L73.2049 20.2606L80.0001 90.418Z" fill="#040404" fill-opacity="0.6"/>
<path d="M12.0187 87.4024L19.8402 25.9816L64.8566 21.1563L73.2051 86.7139L12.0187 87.4024Z" fill="black"/>
<path d="M56.3671 13.9174H51.9929C51.9929 8.65379 47.7093 4.37219 42.4427 4.37219C37.1772 4.37219 32.8926 8.65379 32.8926 13.9174H28.5184C28.5184 6.2436 34.765 -2.64814e-05 42.4427 -2.64814e-05C50.1205 -2.64814e-05 56.3671 6.2436 56.3671 13.9174Z" fill="#040404"/>
</svg>
