<svg width="20" height="20" viewBox="0 0 20 20" fill="none" xmlns="http://www.w3.org/2000/svg">
<path d="M17.6665 18.3V15.55C17.6665 13.2584 16.7499 11.8834 14.9165 11.8834H5.74988C3.91654 11.8834 2.99988 13.2584 2.99988 15.55V18.3M13.9999 5.46672C13.9999 6.43918 13.6136 7.37181 12.9259 8.05944C12.2383 8.74707 11.3057 9.13338 10.3332 9.13338C9.36075 9.13338 8.42812 8.74707 7.74049 8.05944C7.05285 7.37181 6.66654 6.43918 6.66654 5.46672C6.66654 4.49426 7.05285 3.56162 7.74049 2.87399C8.42812 2.18636 9.36075 1.80005 10.3332 1.80005C11.3057 1.80005 12.2383 2.18636 12.9259 2.87399C13.6136 3.56162 13.9999 4.49426 13.9999 5.46672Z" stroke="#6C6C6C" stroke-width="1.5" stroke-miterlimit="10" stroke-linecap="round" stroke-linejoin="round"/>
</svg>
